<?xml version="1.0" encoding="UTF-8"?>
<!DOCTYPE svg PUBLIC "-//W3C//DTD SVG 1.1//EN" "http://www.w3.org/Graphics/SVG/1.1/DTD/svg11.dtd">
<svg xmlns="http://www.w3.org/2000/svg" version="1.1" width="250px" height="252px" style="shape-rendering:geometricPrecision; text-rendering:geometricPrecision; image-rendering:optimizeQuality; fill-rule:evenodd; clip-rule:evenodd" xmlns:xlink="http://www.w3.org/1999/xlink">
<g><path style="opacity:0.757" fill="#6d7d98" d="M 141.5,3.5 C 141.833,3.5 142.167,3.5 142.5,3.5C 145.246,4.25133 147.913,5.25133 150.5,6.5C 136.556,4.96709 122.556,4.13375 108.5,4C 119.468,2.27545 130.468,2.10878 141.5,3.5 Z"/></g>
<g><path style="opacity:0.999" fill="#f2f4f6" d="M 141.5,3.5 C 130.468,2.10878 119.468,2.27545 108.5,4C 122.556,4.13375 136.556,4.96709 150.5,6.5C 151.919,7.45115 153.585,7.78448 155.5,7.5C 158.146,9.25253 161.146,10.2525 164.5,10.5C 165.78,11.9313 167.447,12.5979 169.5,12.5C 171.426,14.2927 173.759,15.2927 176.5,15.5C 179.678,18.2583 183.345,20.2583 187.5,21.5C 189.147,23.3264 191.147,24.6597 193.5,25.5C 193.973,26.9063 194.973,27.573 196.5,27.5C 197.585,29.5869 199.251,30.9202 201.5,31.5C 206.833,37.5 212.5,43.1667 218.5,48.5C 220.016,51.5331 222.016,54.1997 224.5,56.5C 224.427,58.0269 225.094,59.0269 226.5,59.5C 226.75,61.674 227.75,63.3406 229.5,64.5C 232.263,71.0236 235.263,77.357 238.5,83.5C 243.876,100.368 246.376,117.702 246,135.5C 246.74,123.444 246.24,111.444 244.5,99.5C 251.559,131.296 246.892,161.296 230.5,189.5C 233.444,182.61 236.111,175.61 238.5,168.5C 234.93,175.309 231.597,182.309 228.5,189.5C 227.094,189.973 226.427,190.973 226.5,192.5C 225.094,192.973 224.427,193.973 224.5,195.5C 223.094,195.973 222.427,196.973 222.5,198.5C 220.413,199.585 219.08,201.251 218.5,203.5C 215.097,205.9 212.43,208.9 210.5,212.5C 206.9,214.43 203.9,217.097 201.5,220.5C 199.251,221.08 197.585,222.413 196.5,224.5C 194.973,224.427 193.973,225.094 193.5,226.5C 191.147,227.34 189.147,228.674 187.5,230.5C 183.345,231.742 179.678,233.742 176.5,236.5C 173.088,237.042 170.088,238.375 167.5,240.5C 140.378,248.986 113.045,249.652 85.5,242.5C 83.8984,240.926 81.8984,240.259 79.5,240.5C 76.9122,238.375 73.9122,237.042 70.5,236.5C 69.4863,235.326 68.153,234.66 66.5,234.5C 64.6644,232.412 62.3311,231.079 59.5,230.5C 59.0269,229.094 58.0269,228.427 56.5,228.5C 56.0269,227.094 55.0269,226.427 53.5,226.5C 45.2261,219.563 37.2261,212.23 29.5,204.5C 28.9202,202.251 27.5869,200.585 25.5,199.5C 23.3265,195.148 20.6599,191.148 17.5,187.5C 9.10742,170.997 3.77409,153.663 1.5,135.5C 1.48334,126.151 1.81667,116.818 2.5,107.5C 4.32867,100.65 5.99534,93.6504 7.5,86.5C 9.40318,83.4701 10.7365,80.1368 11.5,76.5C 13.6744,73.4846 15.3411,70.1513 16.5,66.5C 18.2503,65.3406 19.2503,63.674 19.5,61.5C 21.3264,59.8525 22.6597,57.8525 23.5,55.5C 24.9063,55.0269 25.573,54.0269 25.5,52.5C 27.5869,51.4154 28.9202,49.7488 29.5,47.5C 34.5,43.1667 39.1667,38.5 43.5,33.5C 46.0892,32.5806 48.0892,30.914 49.5,28.5C 51.4044,28.2624 52.7377,27.2624 53.5,25.5C 55.0269,25.573 56.0269,24.9063 56.5,23.5C 58.0269,23.573 59.0269,22.9063 59.5,21.5C 63.6553,20.2583 67.322,18.2583 70.5,15.5C 77.5137,13.106 84.5137,10.606 91.5,8C 88.1682,8.16117 84.8349,8.66117 81.5,9.5C 100.936,1.59222 120.936,-0.407784 141.5,3.5 Z"/></g>
<g><path style="opacity:0.929" fill="#4d6182" d="M 99.5,4.5 C 109.936,4.59092 109.769,5.25759 99,6.5C 98.1667,6.33333 97.3333,6.16667 96.5,6C 97.7375,5.76791 98.7375,5.26791 99.5,4.5 Z"/></g>
<g><path style="opacity:0.148" fill="#d0d5df" d="M 142.5,3.5 C 148.528,3.75828 154.194,5.09161 159.5,7.5C 158.167,7.5 156.833,7.5 155.5,7.5C 153.585,7.78448 151.919,7.45115 150.5,6.5C 147.913,5.25133 145.246,4.25133 142.5,3.5 Z"/></g>
<g><path style="opacity:0.063" fill="#ecf0f4" d="M 159.5,7.5 C 167.084,8.79806 174.084,11.4647 180.5,15.5C 179.167,15.5 177.833,15.5 176.5,15.5C 174.574,13.7073 172.241,12.7073 169.5,12.5C 168.22,11.0687 166.553,10.4021 164.5,10.5C 162.928,9.31271 161.261,8.31271 159.5,7.5 Z"/></g>
<g><path style="opacity:0.733" fill="#5c6d8a" d="M 70.5,15.5 C 74.0383,13.2315 77.705,11.2315 81.5,9.5C 84.8349,8.66117 88.1682,8.16117 91.5,8C 84.5137,10.606 77.5137,13.106 70.5,15.5 Z"/></g>
<g><path style="opacity:0.741" fill="#637490" d="M 155.5,7.5 C 156.833,7.5 158.167,7.5 159.5,7.5C 161.261,8.31271 162.928,9.31271 164.5,10.5C 161.146,10.2525 158.146,9.25253 155.5,7.5 Z"/></g>
<g><path style="opacity:0.784" fill="#536481" d="M 164.5,10.5 C 166.553,10.4021 168.22,11.0687 169.5,12.5C 167.447,12.5979 165.78,11.9313 164.5,10.5 Z"/></g>
<g><path style="opacity:0.035" fill="#eff2f6" d="M 81.5,9.5 C 77.705,11.2315 74.0383,13.2315 70.5,15.5C 69.1667,15.5 67.8333,15.5 66.5,15.5C 71.1203,12.6947 76.1203,10.6947 81.5,9.5 Z"/></g>
<g><path style="opacity:0.827" fill="#556785" d="M 169.5,12.5 C 172.241,12.7073 174.574,13.7073 176.5,15.5C 173.759,15.2927 171.426,14.2927 169.5,12.5 Z"/></g>
<g><path style="opacity:0.859" fill="#6c7b95" d="M 176.5,15.5 C 177.833,15.5 179.167,15.5 180.5,15.5C 181.167,15.5 181.5,15.8333 181.5,16.5C 183.5,18.1667 185.5,19.8333 187.5,21.5C 183.345,20.2583 179.678,18.2583 176.5,15.5 Z"/></g>
<g><path style="opacity:0.8" fill="#697893" d="M 66.5,15.5 C 67.8333,15.5 69.1667,15.5 70.5,15.5C 67.322,18.2583 63.6553,20.2583 59.5,21.5C 61.5,19.8333 63.5,18.1667 65.5,16.5C 65.5,15.8333 65.8333,15.5 66.5,15.5 Z"/></g>
<g><path style="opacity:0.765" fill="#506381" d="M 59.5,21.5 C 59.0269,22.9063 58.0269,23.573 56.5,23.5C 56.9731,22.0937 57.9731,21.427 59.5,21.5 Z"/></g>
<g><path style="opacity:0.859" fill="#63738e" d="M 187.5,21.5 C 190.198,21.8449 192.198,23.1782 193.5,25.5C 191.147,24.6597 189.147,23.3264 187.5,21.5 Z"/></g>
<g><path style="opacity:0.694" fill="#566785" d="M 56.5,23.5 C 56.0269,24.9063 55.0269,25.573 53.5,25.5C 53.9731,24.0937 54.9731,23.427 56.5,23.5 Z"/></g>
<g><path style="opacity:0.804" fill="#5e6e8a" d="M 193.5,25.5 C 195.027,25.427 196.027,26.0937 196.5,27.5C 194.973,27.573 193.973,26.9063 193.5,25.5 Z"/></g>
<g><path style="opacity:0.78" fill="#5c6d8a" d="M 53.5,25.5 C 52.7377,27.2624 51.4044,28.2624 49.5,28.5C 50.2623,26.7376 51.5956,25.7376 53.5,25.5 Z"/></g>
<g><path style="opacity:0.824" fill="#677791" d="M 196.5,27.5 C 198.749,28.0798 200.415,29.4131 201.5,31.5C 199.251,30.9202 197.585,29.5869 196.5,27.5 Z"/></g>
<g><path style="opacity:0.086" fill="#f0f3f6" d="M 181.5,16.5 C 189.798,20.2919 197.465,25.1252 204.5,31C 209.766,35.7587 214.433,40.9254 218.5,46.5C 213.11,41.1057 207.444,36.1057 201.5,31.5C 200.415,29.4131 198.749,28.0798 196.5,27.5C 196.027,26.0937 195.027,25.427 193.5,25.5C 192.198,23.1782 190.198,21.8449 187.5,21.5C 185.5,19.8333 183.5,18.1667 181.5,16.5 Z"/></g>
<g><path style="opacity:0.412" fill="#79869e" d="M 49.5,28.5 C 48.0892,30.914 46.0892,32.5806 43.5,33.5C 44.9108,31.086 46.9108,29.4194 49.5,28.5 Z"/></g>
<g><path style="opacity:0.686" fill="#6d7c95" d="M 201.5,31.5 C 207.444,36.1057 213.11,41.1057 218.5,46.5C 218.5,47.1667 218.5,47.8333 218.5,48.5C 212.5,43.1667 206.833,37.5 201.5,31.5 Z"/></g>
<g><path style="opacity:0.714" fill="#5f6f8a" d="M 43.5,33.5 C 39.1667,38.5 34.5,43.1667 29.5,47.5C 33.1667,41.8333 37.8333,37.1667 43.5,33.5 Z"/></g>
<g><path style="opacity:0.753" fill="#5c6c88" d="M 29.5,47.5 C 28.9202,49.7488 27.5869,51.4154 25.5,52.5C 26.0798,50.2512 27.4131,48.5846 29.5,47.5 Z"/></g>
<g><path style="opacity:0.694" fill="#6c7b95" d="M 218.5,48.5 C 221.471,50.4426 223.471,53.1092 224.5,56.5C 222.016,54.1997 220.016,51.5331 218.5,48.5 Z"/></g>
<g><path style="opacity:0.725" fill="#576784" d="M 25.5,52.5 C 25.573,54.0269 24.9063,55.0269 23.5,55.5C 23.427,53.9731 24.0937,52.9731 25.5,52.5 Z"/></g>
<g><path style="opacity:0.804" fill="#5c6c89" d="M 23.5,55.5 C 22.6597,57.8525 21.3264,59.8525 19.5,61.5C 19.8449,58.8021 21.1782,56.8021 23.5,55.5 Z"/></g>
<g><path style="opacity:0.69" fill="#5d6e8b" d="M 224.5,56.5 C 225.906,56.9731 226.573,57.9731 226.5,59.5C 225.094,59.0269 224.427,58.0269 224.5,56.5 Z"/></g>
<g><path style="opacity:0.71" fill="#60708b" d="M 226.5,59.5 C 228.25,60.6594 229.25,62.326 229.5,64.5C 227.75,63.3406 226.75,61.674 226.5,59.5 Z"/></g>
<g><path style="opacity:0.776" fill="#596986" d="M 19.5,61.5 C 19.2503,63.674 18.2503,65.3406 16.5,66.5C 16.7497,64.326 17.7497,62.6594 19.5,61.5 Z"/></g>
<g><path style="opacity:0.784" fill="#5a6a86" d="M 16.5,66.5 C 15.3411,70.1513 13.6744,73.4846 11.5,76.5C 12.1266,72.5799 13.7933,69.2466 16.5,66.5 Z"/></g>
<g><path style="opacity:0.024" fill="#f3f5f8" d="M 218.5,46.5 C 227.585,55.9437 234.252,66.9437 238.5,79.5C 235.752,74.3343 232.752,69.3343 229.5,64.5C 229.25,62.326 228.25,60.6594 226.5,59.5C 226.573,57.9731 225.906,56.9731 224.5,56.5C 223.471,53.1092 221.471,50.4426 218.5,48.5C 218.5,47.8333 218.5,47.1667 218.5,46.5 Z"/></g>
<g><path style="opacity:0.843" fill="#687893" d="M 229.5,64.5 C 232.752,69.3343 235.752,74.3343 238.5,79.5C 238.5,80.8333 238.5,82.1667 238.5,83.5C 235.263,77.357 232.263,71.0236 229.5,64.5 Z"/></g>
<g><path style="opacity:0.835" fill="#65748f" d="M 11.5,76.5 C 10.7365,80.1368 9.40318,83.4701 7.5,86.5C 7.77005,82.6424 9.10339,79.309 11.5,76.5 Z"/></g>
<g><path style="opacity:0.027" fill="#f3f5f8" d="M 238.5,79.5 C 240.601,82.7966 241.935,86.4632 242.5,90.5C 241.167,88.1667 239.833,85.8333 238.5,83.5C 238.5,82.1667 238.5,80.8333 238.5,79.5 Z"/></g>
<g><path style="opacity:0.816" fill="#5d6d8b" d="M 7.5,86.5 C 5.99534,93.6504 4.32867,100.65 2.5,107.5C 2.77927,100.054 4.44593,93.0543 7.5,86.5 Z"/></g>
<g><path style="opacity:0.078" fill="#f8fafc" d="M 242.5,90.5 C 243.768,92.9052 244.435,95.5718 244.5,98.5C 242.96,96.1617 242.294,93.4951 242.5,90.5 Z"/></g>
<g><path style="opacity:0.757" fill="#576989" d="M 238.5,83.5 C 239.833,85.8333 241.167,88.1667 242.5,90.5C 242.294,93.4951 242.96,96.1617 244.5,98.5C 244.5,98.8333 244.5,99.1667 244.5,99.5C 246.24,111.444 246.74,123.444 246,135.5C 246.376,117.702 243.876,100.368 238.5,83.5 Z"/></g>
<g><path style="opacity:0.958" fill="#3a4e70" d="M 2.5,107.5 C 1.81667,116.818 1.48334,126.151 1.5,135.5C 1.16667,135.5 0.833333,135.5 0.5,135.5C 0.333648,127.826 0.500315,120.159 1,112.5C 1.19808,110.618 1.69808,108.952 2.5,107.5 Z"/></g>
<g><path style="opacity:0.08" fill="#eff2f6" d="M 65.5,16.5 C 63.5,18.1667 61.5,19.8333 59.5,21.5C 57.9731,21.427 56.9731,22.0937 56.5,23.5C 54.9731,23.427 53.9731,24.0937 53.5,25.5C 51.5956,25.7376 50.2623,26.7376 49.5,28.5C 46.9108,29.4194 44.9108,31.086 43.5,33.5C 37.8333,37.1667 33.1667,41.8333 29.5,47.5C 27.4131,48.5846 26.0798,50.2512 25.5,52.5C 24.0937,52.9731 23.427,53.9731 23.5,55.5C 21.1782,56.8021 19.8449,58.8021 19.5,61.5C 17.7497,62.6594 16.7497,64.326 16.5,66.5C 13.7933,69.2466 12.1266,72.5799 11.5,76.5C 9.10339,79.309 7.77005,82.6424 7.5,86.5C 4.44593,93.0543 2.77927,100.054 2.5,107.5C 1.69808,108.952 1.19808,110.618 1,112.5C 0.500315,120.159 0.333648,127.826 0.5,135.5C 2.10924,149.603 5.44257,163.27 10.5,176.5C 8.21271,172.848 6.37937,168.848 5,164.5C 2.81536,156.439 0.982024,148.439 -0.5,140.5C -0.5,130.5 -0.5,120.5 -0.5,110.5C 5.24475,73.1773 23.5781,43.6773 54.5,22C 57.9099,19.6284 61.5766,17.7951 65.5,16.5 Z"/></g>
<g><path style="opacity:0.867" fill="#63738f" d="M 0.5,135.5 C 0.833333,135.5 1.16667,135.5 1.5,135.5C 3.77409,153.663 9.10742,170.997 17.5,187.5C 15.5879,185.343 13.9213,183.009 12.5,180.5C 12.3404,178.847 11.6737,177.514 10.5,176.5C 5.44257,163.27 2.10924,149.603 0.5,135.5 Z"/></g>
<g><path style="opacity:0.918" fill="#4e6080" d="M 238.5,168.5 C 241.293,158.658 243.46,148.658 245,138.5C 245.182,149.098 243.015,159.098 238.5,168.5 Z"/></g>
<g><path style="opacity:0.925" fill="#5e6e8c" d="M 238.5,168.5 C 236.111,175.61 233.444,182.61 230.5,189.5C 229.833,189.5 229.167,189.5 228.5,189.5C 231.597,182.309 234.93,175.309 238.5,168.5 Z"/></g>
<g><path style="opacity:0.031" fill="#f5f7f9" d="M 10.5,176.5 C 11.6737,177.514 12.3404,178.847 12.5,180.5C 10.8958,179.713 10.2291,178.38 10.5,176.5 Z"/></g>
<g><path style="opacity:0.022" fill="#f5f6f9" d="M 12.5,180.5 C 13.9213,183.009 15.5879,185.343 17.5,187.5C 17.8333,188.833 18.1667,190.167 18.5,191.5C 15.2145,188.6 13.2145,184.933 12.5,180.5 Z"/></g>
<g><path style="opacity:0.784" fill="#657490" d="M 17.5,187.5 C 20.6599,191.148 23.3265,195.148 25.5,199.5C 24.5,198.833 23.5,198.167 22.5,197.5C 21.6597,195.147 20.3264,193.147 18.5,191.5C 18.1667,190.167 17.8333,188.833 17.5,187.5 Z"/></g>
<g><path style="opacity:0.8" fill="#50607e" d="M 228.5,189.5 C 228.573,191.027 227.906,192.027 226.5,192.5C 226.427,190.973 227.094,189.973 228.5,189.5 Z"/></g>
<g><path style="opacity:0.045" fill="#f2f4f7" d="M 18.5,191.5 C 20.3264,193.147 21.6597,195.147 22.5,197.5C 20.1782,196.198 18.8449,194.198 18.5,191.5 Z"/></g>
<g><path style="opacity:0.855" fill="#526483" d="M 226.5,192.5 C 226.573,194.027 225.906,195.027 224.5,195.5C 224.427,193.973 225.094,192.973 226.5,192.5 Z"/></g>
<g><path style="opacity:0.804" fill="#4f617f" d="M 224.5,195.5 C 224.573,197.027 223.906,198.027 222.5,198.5C 222.427,196.973 223.094,195.973 224.5,195.5 Z"/></g>
<g><path style="opacity:0.045" fill="#f1f3f7" d="M 228.5,189.5 C 229.167,189.5 229.833,189.5 230.5,189.5C 227.461,195.587 223.461,200.921 218.5,205.5C 218.5,204.833 218.5,204.167 218.5,203.5C 220.587,202.415 221.92,200.749 222.5,198.5C 223.906,198.027 224.573,197.027 224.5,195.5C 225.906,195.027 226.573,194.027 226.5,192.5C 227.906,192.027 228.573,191.027 228.5,189.5 Z"/></g>
<g><path style="opacity:0.064" fill="#eff1f5" d="M 22.5,197.5 C 23.5,198.167 24.5,198.833 25.5,199.5C 26.0798,201.749 27.4131,203.415 29.5,204.5C 29.5569,205.609 29.8902,206.609 30.5,207.5C 26.7549,205.082 24.0882,201.749 22.5,197.5 Z"/></g>
<g><path style="opacity:0.824" fill="#5e6f8c" d="M 25.5,199.5 C 27.5869,200.585 28.9202,202.251 29.5,204.5C 27.4131,203.415 26.0798,201.749 25.5,199.5 Z"/></g>
<g><path style="opacity:0.922" fill="#586986" d="M 222.5,198.5 C 221.92,200.749 220.587,202.415 218.5,203.5C 219.08,201.251 220.413,199.585 222.5,198.5 Z"/></g>
<g><path style="opacity:0.016" fill="#f0f3f5" d="M 30.5,207.5 C 34.1667,210.5 37.5,213.833 40.5,217.5C 36.1667,215.167 32.8333,211.833 30.5,207.5 Z"/></g>
<g><path style="opacity:0.8" fill="#728099" d="M 29.5,204.5 C 37.2261,212.23 45.2261,219.563 53.5,226.5C 51.8333,225.833 50.1667,225.167 48.5,224.5C 47.4154,222.413 45.7488,221.08 43.5,220.5C 41.8102,220.144 40.8102,219.144 40.5,217.5C 37.5,213.833 34.1667,210.5 30.5,207.5C 29.8902,206.609 29.5569,205.609 29.5,204.5 Z"/></g>
<g><path style="opacity:0.922" fill="#586986" d="M 218.5,203.5 C 218.5,204.167 218.5,204.833 218.5,205.5C 215.833,207.833 213.167,210.167 210.5,212.5C 212.43,208.9 215.097,205.9 218.5,203.5 Z"/></g>
<g><path style="opacity:0.055" fill="#eff2f5" d="M 218.5,205.5 C 211.361,215.642 202.361,223.642 191.5,229.5C 192.167,228.5 192.833,227.5 193.5,226.5C 195.027,226.573 196.027,225.906 196.5,224.5C 198.749,223.92 200.415,222.587 201.5,220.5C 205.1,218.57 208.1,215.903 210.5,212.5C 213.167,210.167 215.833,207.833 218.5,205.5 Z"/></g>
<g><path style="opacity:0.902" fill="#586986" d="M 210.5,212.5 C 208.1,215.903 205.1,218.57 201.5,220.5C 203.9,217.097 206.9,214.43 210.5,212.5 Z"/></g>
<g><path style="opacity:0.988" fill="#274071" d="M 110.5,8.5 C 162.583,5.78677 201.75,26.7868 228,71.5C 245.643,106.942 245.976,142.609 229,178.5C 198.461,230.806 153.295,251.306 93.5,240C 44.7701,224.605 15.9368,191.772 7,141.5C 2.31843,90.4892 21.4851,51.3226 64.5,24C 78.9252,15.7373 94.2585,10.5707 110.5,8.5 Z"/></g>
<g><path style="opacity:0.999" fill="#fdfdfd" d="M 116.5,10.5 C 171.723,10.6791 210.223,36.0125 232,86.5C 246.636,134.789 236.136,176.622 200.5,212C 162.68,242.624 121.014,248.958 75.5,231C 36.1808,211.22 14.0142,179.387 9,135.5C 7.67508,76.9441 34.1751,37.1108 88.5,16C 97.863,13.5602 107.196,11.7269 116.5,10.5 Z"/></g>
<g><path style="opacity:0.999" fill="#314879" d="M 90.5,214.5 C 91.5,214.5 92.5,214.5 93.5,214.5C 93.3398,216.199 93.5065,217.866 94,219.5C 94.4244,217.385 95.5911,216.552 97.5,217C 95.9193,219.998 94.7526,223.165 94,226.5C 93.3109,227.357 92.4776,228.023 91.5,228.5C 90.7022,226.922 90.2022,225.256 90,223.5C 89.4921,225.904 88.3255,226.571 86.5,225.5C 88.2378,221.951 89.5711,218.284 90.5,214.5 Z"/></g>
<g><path style="opacity:0.941" fill="#334a78" d="M 161.5,210.5 C 163.048,210.821 163.715,211.821 163.5,213.5C 159.561,213.178 158.728,214.511 161,217.5C 161.667,218.833 162.333,218.833 163,217.5C 163.202,219.256 163.702,220.922 164.5,222.5C 165.479,219.223 166.813,218.89 168.5,221.5C 166.839,224.092 164.672,224.759 162,223.5C 160.211,220.625 158.711,217.625 157.5,214.5C 158.437,212.712 159.77,211.379 161.5,210.5 Z"/></g>
<g><path style="opacity:0.992" fill="#334975" d="M 85.5,211.5 C 86.3764,211.369 87.0431,211.702 87.5,212.5C 85.7499,216.336 83.7499,220.002 81.5,223.5C 81.1667,223 80.8333,222.5 80.5,222C 82.0602,218.382 83.7269,214.882 85.5,211.5 Z"/></g>
<g><path style="opacity:0.976" fill="#314976" d="M 170.5,204.5 C 172.758,204.775 173.092,205.775 171.5,207.5C 172.803,209.968 174.303,212.301 176,214.5C 176.667,215.5 176.667,216.5 176,217.5C 173.667,214.5 171.333,211.5 169,208.5C 168.107,209.711 167.274,209.711 166.5,208.5C 167.867,207.16 169.2,205.827 170.5,204.5 Z"/></g>
<g><path style="opacity:1" fill="#244074" d="M 74.5,204.5 C 75.4972,204.47 76.1639,204.97 76.5,206C 73.166,213.916 74.166,214.916 79.5,209C 80.3317,208.312 80.9984,208.479 81.5,209.5C 79.6465,213.221 77.3131,216.554 74.5,219.5C 72.095,217.654 70.095,216.154 68.5,215C 70.3903,211.38 72.3903,207.88 74.5,204.5 Z"/></g>
<g><path style="opacity:0.999" fill="#4758b7" d="M 70.5,154.5 C 105.983,154.811 141.317,154.977 176.5,155C 178.848,155.346 180.681,156.513 182,158.5C 182.667,165.833 182.667,173.167 182,180.5C 181.535,181.931 180.701,183.097 179.5,184C 142.167,184.667 104.833,184.667 67.5,184C 66.2986,183.097 65.4652,181.931 65,180.5C 64.3333,173.167 64.3333,165.833 65,158.5C 66.4998,156.531 68.3331,155.198 70.5,154.5 Z"/></g>
<g><path style="opacity:0.998" fill="#fbfcfd" d="M 69.5,157.5 C 105.502,157.333 141.502,157.5 177.5,158C 178.792,161.571 179.458,165.405 179.5,169.5C 179.333,173.167 179.167,176.833 179,180.5C 178.5,181 178,181.5 177.5,182C 141.833,182.667 106.167,182.667 70.5,182C 69.5838,181.626 68.7504,181.126 68,180.5C 67.3333,173.5 67.3333,166.5 68,159.5C 68.7172,158.956 69.2172,158.289 69.5,157.5 Z"/></g>
<g><path style="opacity:0.196" fill="#c9ceea" d="M 98.5,165.5 C 98.5,166.167 98.5,166.833 98.5,167.5C 75.8333,166.833 75.8333,166.167 98.5,165.5 Z"/></g>
<g><path style="opacity:1" fill="#4152b5" d="M 148.5,161.5 C 157.5,161.5 166.5,161.5 175.5,161.5C 175.5,162.833 175.5,164.167 175.5,165.5C 170.167,165.5 164.833,165.5 159.5,165.5C 159.5,168.167 159.5,170.833 159.5,173.5C 165.167,173.336 165.5,173.003 160.5,172.5C 160.5,170.833 160.5,169.167 160.5,167.5C 165.5,167.5 170.5,167.5 175.5,167.5C 175.5,171.167 175.5,174.833 175.5,178.5C 166.494,178.666 157.494,178.5 148.5,178C 147.189,172.5 147.189,167 148.5,161.5 Z"/></g>
<g><path style="opacity:1" fill="#3f51b5" d="M 133.5,161.5 C 137.167,161.5 140.833,161.5 144.5,161.5C 144.5,167.167 144.5,172.833 144.5,178.5C 140.833,178.5 137.167,178.5 133.5,178.5C 133.5,172.833 133.5,167.167 133.5,161.5 Z"/></g>
<g><path style="opacity:1" fill="#4454b6" d="M 108.5,170.5 C 108.44,169.957 108.107,169.624 107.5,169.5C 106.52,172.086 106.187,174.753 106.5,177.5C 105.081,178.451 103.415,178.784 101.5,178.5C 101.5,172.833 101.5,167.167 101.5,161.5C 106.844,161.334 112.177,161.501 117.5,162C 120.021,164.22 122.188,166.72 124,169.5C 124.497,166.854 124.664,164.187 124.5,161.5C 126.167,161.5 127.833,161.5 129.5,161.5C 129.5,167.167 129.5,172.833 129.5,178.5C 124.489,178.666 119.489,178.499 114.5,178C 112.371,175.561 110.371,173.061 108.5,170.5 Z"/></g>
<g><path style="opacity:0.502" fill="#929cd5" d="M 108.5,170.5 C 107.833,172.833 107.167,175.167 106.5,177.5C 106.187,174.753 106.52,172.086 107.5,169.5C 108.107,169.624 108.44,169.957 108.5,170.5 Z"/></g>
<g><path style="opacity:1" fill="#4555b6" d="M 98.5,165.5 C 75.8333,166.167 75.8333,166.833 98.5,167.5C 98.5,169.167 98.5,170.833 98.5,172.5C 75.8333,172.833 75.8333,173.167 98.5,173.5C 98.5,175.167 98.5,176.833 98.5,178.5C 89.1667,178.5 79.8333,178.5 70.5,178.5C 70.5,172.833 70.5,167.167 70.5,161.5C 79.8333,161.5 89.1667,161.5 98.5,161.5C 98.5,162.833 98.5,164.167 98.5,165.5 Z"/></g>
<g><path style="opacity:1" fill="#4757b7" d="M 154.5,111.5 C 159.859,113.012 164.859,115.346 169.5,118.5C 170.663,124.137 170.83,129.804 170,135.5C 165.48,138.427 160.813,141.093 156,143.5C 151.412,141.246 147.079,138.579 143,135.5C 142.333,129.833 142.333,124.167 143,118.5C 147.147,116.518 150.98,114.184 154.5,111.5 Z"/></g>
<g><path style="opacity:1" fill="#fefefe" d="M 155.5,116.5 C 158.634,117.901 161.634,119.568 164.5,121.5C 168.065,130.325 165.231,135.659 156,137.5C 152.694,136.348 149.694,134.681 147,132.5C 146.175,128.789 146.341,125.122 147.5,121.5C 150.231,119.808 152.898,118.142 155.5,116.5 Z"/></g>
<g><path style="opacity:1" fill="#4757b7" d="M 121.5,111.5 C 126.859,113.012 131.859,115.346 136.5,118.5C 137.663,124.137 137.83,129.804 137,135.5C 132.48,138.427 127.813,141.093 123,143.5C 118.412,141.246 114.079,138.579 110,135.5C 109.333,129.833 109.333,124.167 110,118.5C 113.814,116.016 117.647,113.682 121.5,111.5 Z"/></g>
<g><path style="opacity:1" fill="#fdfefe" d="M 122.5,116.5 C 125.634,117.901 128.634,119.568 131.5,121.5C 135.065,130.325 132.231,135.659 123,137.5C 119.694,136.348 116.694,134.681 114,132.5C 113.175,128.789 113.341,125.122 114.5,121.5C 117.231,119.808 119.898,118.142 122.5,116.5 Z"/></g>
<g><path style="opacity:1" fill="#4958b8" d="M 88.5,111.5 C 93.978,113.457 99.1446,116.124 104,119.5C 104.667,124.833 104.667,130.167 104,135.5C 99.4801,138.427 94.8134,141.093 90,143.5C 85.7685,141.3 81.6018,138.967 77.5,136.5C 76.3364,130.528 76.1697,124.528 77,118.5C 80.8137,116.016 84.6471,113.682 88.5,111.5 Z"/></g>
<g><path style="opacity:1" fill="#fdfefe" d="M 89.5,116.5 C 92.6339,117.901 95.6339,119.568 98.5,121.5C 99.6586,125.122 99.8253,128.789 99,132.5C 96.3065,134.681 93.3065,136.348 90,137.5C 80.7686,135.659 77.9352,130.325 81.5,121.5C 84.2308,119.808 86.8975,118.142 89.5,116.5 Z"/></g>
<g><path style="opacity:1" fill="#2b4c77" d="M 220.5,83.5 C 221.978,83.238 223.311,83.5713 224.5,84.5C 220.734,87.1315 216.567,89.1315 212,90.5C 211.5,90.1667 211,89.8333 210.5,89.5C 213.771,87.3089 217.104,85.3089 220.5,83.5 Z"/></g>
<g><path style="opacity:0.996" fill="#2b4c78" d="M 24.5,78.5 C 28.481,78.7764 32.1477,80.1098 35.5,82.5C 37.0368,85.6208 36.5368,88.2874 34,90.5C 29.9704,88.3987 25.8038,86.7321 21.5,85.5C 22.0115,82.9785 23.0115,80.6451 24.5,78.5 Z"/></g>
<g><path style="opacity:1" fill="#4858b8" d="M 138.5,82.5 C 143.381,84.2739 148.048,86.6073 152.5,89.5C 153.663,95.1375 153.83,100.804 153,106.5C 148.65,109.173 144.317,111.84 140,114.5C 135.28,112.557 130.78,110.224 126.5,107.5C 125.167,101.5 125.167,95.5 126.5,89.5C 130.563,87.1401 134.563,84.8067 138.5,82.5 Z"/></g>
<g><path style="opacity:1" fill="#fdfdfe" d="M 137.5,88.5 C 147.679,89.3157 151.012,94.649 147.5,104.5C 145.107,106.363 142.44,107.696 139.5,108.5C 131.089,106.321 128.422,100.988 131.5,92.5C 133.565,91.1433 135.565,89.81 137.5,88.5 Z"/></g>
<g><path style="opacity:1" fill="#4757b7" d="M 104.5,82.5 C 110.276,83.9716 115.443,86.6383 120,90.5C 120.667,95.8333 120.667,101.167 120,106.5C 115.806,109.932 111.139,112.599 106,114.5C 101.768,112.3 97.6018,109.967 93.5,107.5C 92.1667,101.5 92.1667,95.5 93.5,89.5C 97.4005,87.3919 101.067,85.0585 104.5,82.5 Z"/></g>
<g><path style="opacity:1" fill="#fdfdfe" d="M 104.5,88.5 C 114.801,89.6144 118.134,94.9478 114.5,104.5C 112.107,106.363 109.44,107.696 106.5,108.5C 100.876,107.371 97.543,104.204 96.5,99C 96.5798,97.1063 96.9131,95.2729 97.5,93.5C 99.7243,91.566 102.058,89.8994 104.5,88.5 Z"/></g>
<g><path style="opacity:0.03" fill="#e5ebee" d="M 25.5,81.5 C 28.7265,81.7799 31.3932,83.1132 33.5,85.5C 31.0485,86.3142 28.7151,85.8142 26.5,84C 25.7476,83.3292 25.4142,82.4959 25.5,81.5 Z"/></g>
<g><path style="opacity:0.996" fill="#234773" d="M 216.5,71.5 C 219.068,72.5737 220.735,74.5737 221.5,77.5C 216.726,77.7765 212.226,79.4432 208,82.5C 207.308,81.9747 206.808,81.3081 206.5,80.5C 209.339,78.5797 212.339,76.9131 215.5,75.5C 216.429,74.3112 216.762,72.9778 216.5,71.5 Z"/></g>
<g><path style="opacity:1" fill="#224673" d="M 31.5,65.5 C 35.4303,67.5808 39.2636,69.9141 43,72.5C 43.5908,73.4835 43.2575,74.1501 42,74.5C 40.6667,73.8333 39.3333,73.1667 38,72.5C 37.5,72.8333 37,73.1667 36.5,73.5C 37.9448,75.0627 39.6115,76.396 41.5,77.5C 41.2907,78.086 40.9574,78.586 40.5,79C 36.5244,77.4198 32.6911,75.2532 29,72.5C 28.4092,71.5165 28.7425,70.8499 30,70.5C 31.2853,70.9504 32.452,71.6171 33.5,72.5C 33.8333,72 34.1667,71.5 34.5,71C 33.3867,69.6057 32.0534,68.439 30.5,67.5C 30.8627,66.8165 31.1961,66.1499 31.5,65.5 Z"/></g>
<g><path style="opacity:1" fill="#254776" d="M 209.5,61.5 C 211.346,61.2222 212.68,61.8888 213.5,63.5C 210.182,67.3181 206.682,70.9848 203,74.5C 201.256,73.3508 201.089,72.0175 202.5,70.5C 201.311,69.5713 199.978,69.238 198.5,69.5C 198.5,68.5 198.5,67.5 198.5,66.5C 202.45,65.4078 206.117,63.7411 209.5,61.5 Z"/></g>
<g><path style="opacity:0.998" fill="#2a4c76" d="M 35.5,59.5 C 40.414,61.3002 44.7474,64.1336 48.5,68C 47.7248,69.2295 46.7248,69.5628 45.5,69C 42.8333,67 40.1667,65 37.5,63C 36.1772,62.1841 35.5106,61.0174 35.5,59.5 Z"/></g>
<g><path style="opacity:0.999" fill="#234773" d="M 200.5,49.5 C 202.225,49.8425 202.725,50.8425 202,52.5C 199.651,55.0168 197.151,57.3501 194.5,59.5C 195.167,60.5 195.833,61.5 196.5,62.5C 193.056,63.5627 191.556,62.2294 192,58.5C 195.038,55.6306 197.871,52.6306 200.5,49.5 Z"/></g>
<g><path style="opacity:1" fill="#4757b7" d="M 121.5,53.5 C 126.715,55.4406 131.715,57.9406 136.5,61C 137.639,66.4162 137.806,71.9162 137,77.5C 132.48,80.4265 127.813,83.0932 123,85.5C 118.768,83.3004 114.602,80.9671 110.5,78.5C 109.167,72.5 109.167,66.5 110.5,60.5C 114.401,58.3919 118.067,56.0585 121.5,53.5 Z"/></g>
<g><path style="opacity:1" fill="#fdfdfe" d="M 122.5,58.5 C 125.723,60.3642 128.89,62.3642 132,64.5C 132.825,68.2113 132.659,71.878 131.5,75.5C 128.42,76.7885 125.586,78.4552 123,80.5C 120.414,78.4552 117.58,76.7885 114.5,75.5C 113.341,71.878 113.175,68.2113 114,64.5C 116.988,62.6009 119.821,60.6009 122.5,58.5 Z"/></g>
<g><path style="opacity:1" fill="#274a76" d="M 45.5,48.5 C 47.9925,52.7896 50.9925,56.7896 54.5,60.5C 51.9529,61.5385 49.9529,60.7052 48.5,58C 45.7076,57.1034 43.0409,55.9367 40.5,54.5C 42.0453,53.5481 43.712,53.2148 45.5,53.5C 45.5,51.8333 45.5,50.1667 45.5,48.5 Z"/></g>
<g><path style="opacity:1" fill="#1d4371" d="M 189.5,41.5 C 194.22,41.206 195.886,43.206 194.5,47.5C 193.614,46.675 193.281,45.675 193.5,44.5C 192.5,44.5 191.5,44.5 190.5,44.5C 190.665,47.5184 190.498,50.5184 190,53.5C 188,56.1667 186,56.1667 184,53.5C 183.333,51.8333 183.333,50.1667 184,48.5C 185.188,49.5634 185.688,50.8967 185.5,52.5C 186.5,52.5 187.5,52.5 188.5,52.5C 188.557,50.1155 188.223,47.7822 187.5,45.5C 187.752,43.9271 188.418,42.5938 189.5,41.5 Z"/></g>
<g><path style="opacity:0.996" fill="#234675" d="M 63.5,51.5 C 63.44,50.9569 63.1067,50.6236 62.5,50.5C 61.8333,51.8333 61.1667,53.1667 60.5,54.5C 57.7979,50.9362 55.4645,47.1029 53.5,43C 53.6135,41.7202 54.2801,40.8869 55.5,40.5C 60.2531,43.2528 63.9198,46.9195 66.5,51.5C 65.5,51.5 64.5,51.5 63.5,51.5 Z"/></g>
<g><path style="opacity:0.996" fill="#274976" d="M 179.5,33.5 C 182.14,33.954 184.473,35.1207 186.5,37C 185.975,37.6924 185.308,38.1924 184.5,38.5C 183.264,37.7542 181.93,37.4208 180.5,37.5C 180.421,38.9305 180.754,40.2638 181.5,41.5C 179.955,42.4519 178.288,42.7852 176.5,42.5C 176.703,44.6382 177.703,46.3049 179.5,47.5C 176.494,48.6641 174.494,47.6641 173.5,44.5C 175.518,40.8226 177.518,37.1559 179.5,33.5 Z"/></g>
<g><path style="opacity:1" fill="#1e4371" d="M 168.5,36.5 C 169.933,34.4809 171.267,32.3143 172.5,30C 173.483,29.4092 174.15,29.7425 174.5,31C 173.081,34.5039 171.415,37.8373 169.5,41C 163.92,42.261 162.087,40.0943 164,34.5C 165.247,31.6714 166.747,29.0048 168.5,26.5C 169.308,26.8076 169.975,27.3076 170.5,28C 168.136,31.5586 166.469,35.392 165.5,39.5C 166.5,39.5 167.5,39.5 168.5,39.5C 168.5,38.5 168.5,37.5 168.5,36.5 Z"/></g>
<g><path style="opacity:0.996" fill="#224673" d="M 76.5,26.5 C 77.4972,26.4701 78.1639,26.9701 78.5,28C 74.265,31.3948 74.9317,33.5615 80.5,34.5C 79.1468,35.5237 78.4802,36.857 78.5,38.5C 79.9305,38.5792 81.2638,38.2458 82.5,37.5C 83.731,38.6507 83.731,39.8173 82.5,41C 80.9751,42.0086 79.3084,42.5086 77.5,42.5C 76.2679,38.1962 74.6013,34.0296 72.5,30C 73.6856,28.5879 75.019,27.4212 76.5,26.5 Z"/></g>
<g><path style="opacity:0.78" fill="#506f8a" d="M 131.5,25.5 C 131.5,27.5 131.5,29.5 131.5,31.5C 133.199,31.6602 134.866,31.4935 136.5,31C 135.263,30.7679 134.263,30.2679 133.5,29.5C 134.833,29.5 136.167,29.5 137.5,29.5C 137.5,30.5 137.5,31.5 137.5,32.5C 135.167,32.5 132.833,32.5 130.5,32.5C 130.198,29.9407 130.532,27.6074 131.5,25.5 Z"/></g>
<g><path style="opacity:1" fill="#1e4272" d="M 133.5,29.5 C 134.263,30.2679 135.263,30.7679 136.5,31C 134.866,31.4935 133.199,31.6602 131.5,31.5C 131.5,29.5 131.5,27.5 131.5,25.5C 131.5,22.8333 131.5,20.1667 131.5,17.5C 133.833,17.5 136.167,17.5 138.5,17.5C 138.5,18.5 138.5,19.5 138.5,20.5C 137.167,20.5 135.833,20.5 134.5,20.5C 135.167,22.5 135.833,24.5 136.5,26.5C 135.5,26.5 134.5,26.5 133.5,26.5C 133.5,27.5 133.5,28.5 133.5,29.5 Z"/></g>
<g><path style="opacity:1" fill="#2b4c78" d="M 86.5,22.5 C 91.019,22.5148 93.519,24.8481 94,29.5C 95.6737,35.6567 93.5071,37.99 87.5,36.5C 85.8711,32.2461 84.5377,27.9128 83.5,23.5C 84.791,23.7373 85.791,23.404 86.5,22.5 Z"/></g>
<g><path style="opacity:0.067" fill="#e4e9ed" d="M 87.5,25.5 C 89.4109,25.5743 90.5776,26.5743 91,28.5C 91.8077,30.5787 91.641,32.5787 90.5,34.5C 88.5056,31.8502 87.5056,28.8502 87.5,25.5 Z"/></g>
<g><path style="opacity:1" fill="#254875" d="M 155.5,22.5 C 159.099,21.9376 161.099,23.4376 161.5,27C 160.7,31.4508 158.533,34.9508 155,37.5C 152.472,36.8031 151.306,35.1364 151.5,32.5C 151.866,28.7277 153.199,25.3943 155.5,22.5 Z"/></g>
<g><path style="opacity:0.034" fill="#d1dae1" d="M 156.5,31.5 C 156.5,32.5 156.5,33.5 156.5,34.5C 155.5,34.5 154.5,34.5 153.5,34.5C 153.733,31.4582 154.733,28.7916 156.5,26.5C 157.302,25.1153 157.969,25.282 158.5,27C 158.101,28.7275 157.434,30.2275 156.5,31.5 Z"/></g>
<g><path style="opacity:0.806" fill="#58738c" d="M 123.5,17.5 C 124.209,16.596 125.209,16.2627 126.5,16.5C 126.821,21.6946 126.487,26.6946 125.5,31.5C 126.103,26.3814 125.436,21.7147 123.5,17.5 Z"/></g>
<g><path style="opacity:1" fill="#294a76" d="M 97.5,19.5 C 99.8568,19.3367 102.19,19.5034 104.5,20C 106.478,23.9331 106.978,28.0998 106,32.5C 103.993,33.6687 101.827,34.3354 99.5,34.5C 98.5082,29.5484 97.8416,24.5484 97.5,19.5 Z"/></g>
<g><path style="opacity:1" fill="#153f71" d="M 123.5,17.5 C 125.436,21.7147 126.103,26.3814 125.5,31.5C 123.665,30.8777 122.498,29.5444 122,27.5C 121.51,28.7932 121.343,30.1266 121.5,31.5C 120.5,31.5 119.5,31.5 118.5,31.5C 118.5,26.5 118.5,21.5 118.5,16.5C 119.5,16.5 120.5,16.5 121.5,16.5C 122.088,22.1458 122.754,22.4792 123.5,17.5 Z"/></g>
<g><path style="opacity:1" fill="#305078" d="M 110.5,17.5 C 111.5,17.5 112.5,17.5 113.5,17.5C 113.751,22.5068 114.084,27.5068 114.5,32.5C 113.5,32.5 112.5,32.5 111.5,32.5C 110.836,27.5275 110.503,22.5275 110.5,17.5 Z"/></g>
<g><path style="opacity:0.02" fill="#d2dae1" d="M 100.5,22.5 C 101.5,22.5 102.5,22.5 103.5,22.5C 103.723,24.3417 104.057,26.175 104.5,28C 104.612,29.6624 103.946,30.8291 102.5,31.5C 101.322,28.6092 100.655,25.6092 100.5,22.5 Z"/></g>
<g><path style="opacity:0.761" fill="#6a7c9a" d="M 130.5,221.5 C 128.219,221.077 126.552,221.744 125.5,223.5C 124.596,222.791 124.263,221.791 124.5,220.5C 126.735,220.205 128.735,220.539 130.5,221.5 Z"/></g>
<g><path style="opacity:0.882" fill="#596a87" d="M 201.5,220.5 C 200.415,222.587 198.749,223.92 196.5,224.5C 197.585,222.413 199.251,221.08 201.5,220.5 Z"/></g>
<g><path style="opacity:0.075" fill="#f0f3f6" d="M 43.5,220.5 C 45.7488,221.08 47.4154,222.413 48.5,224.5C 46.2512,223.92 44.5846,222.587 43.5,220.5 Z"/></g>
<g><path style="opacity:0.965" fill="#334a76" d="M 101.5,218.5 C 102.376,218.369 103.043,218.702 103.5,219.5C 102.561,223.318 101.227,226.985 99.5,230.5C 99.1667,229.833 98.8333,229.167 98.5,228.5C 99.7546,225.214 100.755,221.88 101.5,218.5 Z"/></g>
<g><path style="opacity:0.871" fill="#4c5e7e" d="M 196.5,224.5 C 196.027,225.906 195.027,226.573 193.5,226.5C 193.973,225.094 194.973,224.427 196.5,224.5 Z"/></g>
<g><path style="opacity:0.706" fill="#586986" d="M 53.5,226.5 C 55.0269,226.427 56.0269,227.094 56.5,228.5C 54.9731,228.573 53.9731,227.906 53.5,226.5 Z"/></g>
<g><path style="opacity:0.992" fill="#274271" d="M 137.5,219.5 C 139.722,219.178 141.556,219.845 143,221.5C 143.339,224.036 143.839,226.536 144.5,229C 143.567,231.818 141.567,232.984 138.5,232.5C 136.985,228.167 136.652,223.834 137.5,219.5 Z"/></g>
<g><path style="opacity:0.084" fill="#dadfe8" d="M 138.5,220.5 C 139.496,220.414 140.329,220.748 141,221.5C 141.953,224.432 142.453,227.432 142.5,230.5C 141.5,230.5 140.5,230.5 139.5,230.5C 139.384,227.14 139.051,223.807 138.5,220.5 Z"/></g>
<g><path style="opacity:0.953" fill="#2b4573" d="M 151.5,215.5 C 154.298,218.269 155.965,221.769 156.5,226C 154.831,230.02 152.831,230.354 150.5,227C 150.667,226.5 150.833,226 151,225.5C 151.71,226.973 152.876,227.64 154.5,227.5C 153.512,223.515 152.512,219.515 151.5,215.5 Z"/></g>
<g><path style="opacity:0.757" fill="#586a87" d="M 56.5,228.5 C 58.0269,228.427 59.0269,229.094 59.5,230.5C 57.9731,230.573 56.9731,229.906 56.5,228.5 Z"/></g>
<g><path style="opacity:0.996" fill="#284273" d="M 130.5,221.5 C 131.032,225.407 131.198,229.407 131,233.5C 130,232.167 129,230.833 128,229.5C 127.798,231.256 127.298,232.922 126.5,234.5C 125.511,230.893 125.177,227.226 125.5,223.5C 126.552,221.744 128.219,221.077 130.5,221.5 Z"/></g>
<g><path style="opacity:0.094" fill="#eaeef3" d="M 127.5,222.5 C 129.972,223.749 130.139,225.415 128,227.5C 127.506,225.866 127.34,224.199 127.5,222.5 Z"/></g>
<g><path style="opacity:0.999" fill="#344c7a" d="M 113.5,220.5 C 117.198,219.68 119.531,221.013 120.5,224.5C 119.9,226.936 118.4,228.602 116,229.5C 115.51,230.793 115.343,232.127 115.5,233.5C 114.5,233.5 113.5,233.5 112.5,233.5C 113.2,229.202 113.533,224.869 113.5,220.5 Z"/></g>
<g><path style="opacity:0.467" fill="#bcc4d1" d="M 115.5,222.5 C 116.5,222.5 117.5,222.5 118.5,222.5C 118.5,223.833 118.5,225.167 118.5,226.5C 117.5,226.5 116.5,226.5 115.5,226.5C 115.5,225.167 115.5,223.833 115.5,222.5 Z"/></g>
<g><path style="opacity:0.882" fill="#566785" d="M 193.5,226.5 C 192.833,227.5 192.167,228.5 191.5,229.5C 190.167,229.833 188.833,230.167 187.5,230.5C 189.147,228.674 191.147,227.34 193.5,226.5 Z"/></g>
<g><path style="opacity:0.8" fill="#5d6e8b" d="M 59.5,230.5 C 62.3311,231.079 64.6644,232.412 66.5,234.5C 63.6689,233.921 61.3356,232.588 59.5,230.5 Z"/></g>
<g><path style="opacity:0.067" fill="#eff2f5" d="M 191.5,229.5 C 188.794,232.521 185.461,234.521 181.5,235.5C 183.5,233.833 185.5,232.167 187.5,230.5C 188.833,230.167 190.167,229.833 191.5,229.5 Z"/></g>
<g><path style="opacity:0.933" fill="#5d6e8a" d="M 187.5,230.5 C 185.5,232.167 183.5,233.833 181.5,235.5C 179.883,236.038 178.216,236.371 176.5,236.5C 179.678,233.742 183.345,231.742 187.5,230.5 Z"/></g>
<g><path style="opacity:0.204" fill="#eef1f5" d="M 48.5,224.5 C 50.1667,225.167 51.8333,225.833 53.5,226.5C 53.9731,227.906 54.9731,228.573 56.5,228.5C 56.9731,229.906 57.9731,230.573 59.5,230.5C 61.3356,232.588 63.6689,233.921 66.5,234.5C 67.287,236.104 68.6203,236.771 70.5,236.5C 73.0567,238.607 76.0567,239.941 79.5,240.5C 81.1016,242.074 83.1016,242.741 85.5,242.5C 91.3163,245.105 97.3163,247.105 103.5,248.5C 82.7396,245.61 64.4062,237.61 48.5,224.5 Z"/></g>
<g><path style="opacity:0.882" fill="#586885" d="M 66.5,234.5 C 68.153,234.66 69.4863,235.326 70.5,236.5C 68.6203,236.771 67.287,236.104 66.5,234.5 Z"/></g>
<g><path style="opacity:0.843" fill="#5f6f8a" d="M 70.5,236.5 C 73.9122,237.042 76.9122,238.375 79.5,240.5C 76.0567,239.941 73.0567,238.607 70.5,236.5 Z"/></g>
<g><path style="opacity:0.906" fill="#536481" d="M 176.5,236.5 C 173.912,238.625 170.912,239.958 167.5,240.5C 170.088,238.375 173.088,237.042 176.5,236.5 Z"/></g>
<g><path style="opacity:0.878" fill="#62708c" d="M 79.5,240.5 C 81.8984,240.259 83.8984,240.926 85.5,242.5C 83.1016,242.741 81.1016,242.074 79.5,240.5 Z"/></g>
<g><path style="opacity:0.082" fill="#edf0f4" d="M 181.5,235.5 C 169.908,242.613 157.241,246.946 143.5,248.5C 151.695,246.435 159.695,243.768 167.5,240.5C 170.912,239.958 173.912,238.625 176.5,236.5C 178.216,236.371 179.883,236.038 181.5,235.5 Z"/></g>
<g><path style="opacity:0.8" fill="#6c7a95" d="M 167.5,240.5 C 159.695,243.768 151.695,246.435 143.5,248.5C 130.165,249.794 116.832,249.794 103.5,248.5C 97.3163,247.105 91.3163,245.105 85.5,242.5C 113.045,249.652 140.378,248.986 167.5,240.5 Z"/></g>
<g><path style="opacity:0.069" fill="#fafbfc" d="M 103.5,248.5 C 116.832,249.794 130.165,249.794 143.5,248.5C 130.167,251.167 116.833,251.167 103.5,248.5 Z"/></g>
</svg>
